<svg viewBox="0 0 58 61" fill="none" xmlns="http://www.w3.org/2000/svg"><path d="M42.012 19.006H45v2.988h-2.988v-2.988zm0 6.006H45V28h-2.988v-2.988zm0 5.976H45v3.018h-2.988v-3.018zm0 6.006H45v3.018h-2.988v-3.018zm0 12.012H45v2.988h-2.988v-2.988zm0-6.006H45v2.988h-2.988V43zM17.988 19.006h3.018v2.988h-3.018v-2.988zm0 6.006h3.018V28h-3.018v-2.988zm0 5.976h3.018v3.018h-3.018v-3.018zm0 6.006h3.018v3.018h-3.018v-3.018zm0 12.012h3.018v2.988h-3.018v-2.988zm0-6.006h3.018v2.988h-3.018V43zm-5.976-23.994H15v2.988h-2.988v-2.988zm0 6.006H15V28h-2.988v-2.988zm0 5.976H15v3.018h-2.988v-3.018zm0 6.006H15v3.018h-2.988v-3.018zm0 12.012H15v2.988h-2.988v-2.988zm0-6.006H15v2.988h-2.988V43zm11.982-23.994h3.018v2.988h-3.018v-2.988zm0 6.006h3.018V28h-3.018v-2.988zm0 5.976h3.018v3.018h-3.018v-3.018zm0 6.006h3.018v3.018h-3.018v-3.018zm0 12.012h3.018v2.988h-3.018v-2.988zm0-6.006h3.018v2.988h-3.018V43zm31.494 15h-1.494V17.512c0-1.153-.371-2.246-1.113-3.282-.742-1.035-1.66-1.738-2.754-2.109L36.006 7.404V2.512c0-.254-.059-.479-.176-.674a1.28 1.28 0 00-.44-.527 1.383 1.383 0 00-.644-.293c-.215-.04-.44-.02-.674.058L6.943 9.191c-1.113.332-2.05 1.016-2.812 2.051-.762 1.016-1.143 2.1-1.143 3.252V58H1.494c-.41 0-.762.147-1.055.44-.293.292-.439.644-.439 1.054 0 .41.146.762.44 1.055.292.293.644.44 1.054.44h53.994c.43 0 .791-.147 1.084-.44.293-.293.44-.645.44-1.055 0-.41-.147-.762-.44-1.054a1.473 1.473 0 00-1.084-.44zM49.19 14.963c.468.176.888.518 1.26 1.025.37.508.556 1.016.556 1.524V58h-15V10.568l13.184 4.395zm-43.184-.469c0-.488.176-.976.527-1.465.371-.488.791-.81 1.26-.966l25.195-7.56V58H6.006V14.494z"/></svg>
