<svg viewBox="0 0 52 61" fill="none" xmlns="http://www.w3.org/2000/svg"><path d="M25.012 30.988H28v3.018h-2.988v-3.018zm5.976 0h3.018v3.018h-3.018v-3.018zm6.006 0h3.018v3.018h-3.018v-3.018zm6.006 0h2.988v3.018H43v-3.018zm-17.988 9.024H28V43h-2.988v-2.988zm5.976 0h3.018V43h-3.018v-2.988zm6.006 0h3.018V43h-3.018v-2.988zm6.006 0h2.988V43H43v-2.988zm-17.988 8.994H28v2.988h-2.988v-2.988zm5.976 0h3.018v2.988h-3.018v-2.988zm6.006 0h3.018v2.988h-3.018v-2.988zm6.006 0h2.988v2.988H43v-2.988zm7.5-27.012h-1.494v-7.5c0-.195-.04-.38-.117-.556a1.463 1.463 0 00-.323-.498L43 7.873V2.512c0-.43-.147-.791-.44-1.084a1.438 1.438 0 00-1.054-.44c-.41 0-.762.147-1.055.44-.293.293-.44.654-.44 1.084v5.361l-5.566 5.567a1.463 1.463 0 00-.322.498 1.356 1.356 0 00-.117.556v1.494H28v-7.5c0-.41-.146-.761-.44-1.054a1.438 1.438 0 00-1.054-.44H2.512c-.43 0-.791.147-1.084.44-.293.293-.44.644-.44 1.054v51.006c0 .41.147.762.44 1.055.293.293.654.44 1.084.44H50.5c.41 0 .762-.147 1.055-.44.293-.293.44-.645.44-1.055V23.488c0-.41-.147-.761-.44-1.054a1.438 1.438 0 00-1.055-.44zM36.994 15.11l4.512-4.482 4.482 4.482v6.885H43v-4.482c0-.43-.147-.791-.44-1.084a1.438 1.438 0 00-1.054-.44h-4.512v-.879zm3.018 3.897v2.988H28v-2.988h12.012zm-21.006 4.482V58h-15V10.012h21.006v11.982H20.5c-.41 0-.762.147-1.055.44-.293.293-.44.644-.44 1.054zm30 34.512H21.994V25.012h27.012V58zm-30-45h2.988v6.006h-2.988V13zM13 13h2.988v6.006H13V13zm-6.006 0h3.018v6.006H6.994V13zm0 8.994h3.018V28H6.994v-6.006zm6.006 0h2.988V28H13v-6.006zm-6.006 8.994h3.018v6.006H6.994v-6.006zm6.006 0h2.988v6.006H13v-6.006zm-6.006 9.024h3.018v5.976H6.994v-5.976zm6.006 0h2.988v5.976H13v-5.976zm-6.006 8.994h3.018v6.006H6.994v-6.006zm6.006 0h2.988v6.006H13v-6.006z" /></svg>
