<svg xmlns="http://www.w3.org/2000/svg" viewBox="0 0 64 64"><path d="M37.2 64H28c-2.5 0-4.5-2-4.5-4.5V37H17c-2.5 0-4.5-2-4.5-4.5v-6.9c0-2.5 2-4.6 4.5-4.6h6.5v-5.5c0-9.1 6.2-15.5 15-15.5H47c1.4 0 2.5 1.1 2.5 2.5v13c0 1.4-1.1 2.5-2.5 2.5h-5.5v3H47c1.4.1 2.7.7 3.5 1.8.8 1.1 1.2 2.4.9 3.8l-1.3 6.7c-.3 2.1-2.1 3.7-4.4 3.7h-4.3v22.5c.1 2.5-1.9 4.5-4.2 4.5zm-8.7-5h8V34.5c0-1.4 1.1-2.5 2.5-2.5h6.3l1.2-6H39c-1.4 0-2.5-1.1-2.5-2.5v-8c0-1.4 1.1-2.5 2.5-2.5h5.5V5h-6c-6.1 0-10 4.1-10 10.5v8c0 1.4-1.1 2.5-2.5 2.5h-8.5v6H26c1.4 0 2.5 1.1 2.5 2.5V59z"/></svg>
