<svg xmlns="http://www.w3.org/2000/svg" viewBox="0 0 64 64"><path d="M32 16.9c-8.3 0-15 6.8-15 15.1s6.7 15.1 15 15.1S47 40.3 47 32s-6.7-15.1-15-15.1zm0 25.2c-5.5 0-10-4.5-10-10.1s4.5-10.1 10-10.1S42 26.4 42 32s-4.5 10.1-10 10.1zM47 10c-2.8 0-5 2.3-5 5s2.2 5 5 5 5-2.3 5-5-2.2-5-5-5z"/><path d="M48 0H16C7.2 0 0 7.2 0 16v31.7C0 56.7 7.3 64 16.3 64h31.5C56.7 64 64 56.7 64 47.7V16c0-8.8-7.2-16-16-16zm11 47.7C59 53.9 54 59 47.8 59H16.3C10.1 59 5 54 5 47.8V16C5 9.9 9.9 5 16 5h32c6.1 0 11 4.9 11 11v31.7z"/></svg>
