<svg xmlns="http://www.w3.org/2000/svg" viewBox="0 0 64 64"><path d="M61.6 44.1l-9.3-5.9c-2.4-1.3-5.3-.8-6.9 1.3l-2.1 3.2c-12-7.2-19.5-16.8-22.4-21.1l3.5-2.1c1.1-.8 1.9-1.9 2.1-3.2.3-1.3 0-2.7-.8-3.7l-6.1-8.8C18 1.7 15.1.9 12.9 2.2L4 7c-.5.3-.8.5-1.3.8C-4 15 2.1 31.3 17.6 45.9c11.2 10.7 23.2 16.5 31.7 16.5 3.2 0 5.9-.8 7.7-2.4l1.1-1.1 5.1-8c1.6-2.3.8-5.5-1.6-6.8zm-8 11.9c-4.6 3.8-18.9-1-32.5-13.8C7.7 29.4 2.7 15.8 6.7 11.5L15 6.7l5.9 8.5-3.5 2.1c-1.1.8-1.9 1.9-2.1 3.2-.3 1.3 0 2.7.8 3.7 2.9 4.3 11.2 15.2 24.3 23.2 2.4 1.3 5.3.8 6.9-1.3l2.4-3.5 9.1 5.6-5.2 7.8z"/></svg>
