<svg xmlns="http://www.w3.org/2000/svg" viewBox="0 0 64 64"><path d="M.2 31.9c0 .5 0 1 .1 1.5v.5c0 .3.1.7.1 1.1 0 .1 0 .3.1.5.1.4.1.8.1 1.2 0 .1 0 .2.1.3.1.5.1.9.3 1.4 0 .1.1.3.1.4.1.3.1.7.2 1 .1.1.1.3.1.5.1.3.2.7.3 1 .1.1.1.3.1.4.1.5.3.9.5 1.3.1.1.1.3.1.4.1.3.3.6.4.9.1.1.1.3.2.5.1.3.3.5.4.9.1.1.1.3.2.5.2.4.4.8.6 1.1.1.1.1.2.2.3.2.3.3.6.5.9-.1-.1.1.1.1.3.1.3.3.5.5.7.1.1.2.3.3.5.2.3.4.5.6.8.1.1.1.2.2.3.3.3.5.7.8 1 .1.1.2.3.3.4.2.2.4.4.5.7l.4.4c.2.2.4.5.6.7.1.1.2.3.3.3l.9.9c.1.1.3.2.3.3.2.2.5.4.7.6.1.1.3.3.4.3.2.2.5.4.7.5.1.1.3.2.4.3.3.3.7.5 1.1.8.1.1.2.1.3.2.3.2.6.4.9.5.1.1.3.2.5.3.3.1.5.3.8.5.1.1.3.1.4.3.4.2.7.4 1.1.6.1 0 .1.1.1.1.4.2.9.4 1.3.6.1.1.3.1.4.1.2.1.3.1.5.2-.3-2.5-.5-6.4.1-9.2.6-2.5 3.7-15.9 3.7-15.9s-.9-1.9-.9-4.7c0-4.5 2.6-7.8 5.8-7.8 2.7 0 4.1 2.1 4.1 4.5 0 2.7-1.7 6.8-2.7 10.6-.7 3.2 1.6 5.8 4.7 5.8 5.6 0 10-6 10-14.6 0-7.6-5.5-13-13.3-13-9.1 0-14.4 6.8-14.4 13.8 0 2.7 1.1 5.6 2.4 7.3.3.3.3.6.2.9-.3 1-.8 3.2-.9 3.6-.1.6-.5.7-1.1.4-4-1.9-6.4-7.7-6.4-12.4 0-10 7.3-19.3 21.1-19.3 11.1 0 19.7 7.9 19.7 18.4 0 11-6.9 19.9-16.5 19.9-3.3 0-6.2-1.7-7.3-3.7 0 0-1.6 6.1-2 7.6-.7 2.8-2.7 6.2-4 8.4.4.1.9.3 1.3.4.1.1.3.1.5.1.3.1.7.1.9.2.1.1.3.1.5.1.4.1.9.1 1.3.2h.1c.5.1.9.1 1.4.2.1 0 .3 0 .5.1.3.1.7.1 1.1.1h.4c.5 0 1 .1 1.5.1C49.7 63.8 64 49.5 64 31.9c0-13.6-8.5-25.2-20.4-29.8-.3-.3-.7-.5-1.1-.7-.9-.3-1.9-.6-2.9-.8-.9-.2-1.7-.4-2.5-.5C36 0 35-.2 33.9-.2h-1.7c-1.1 0-2.2.1-3.3.1-.5.1-1.1.1-1.6.2C11.9 2.7.2 16 .2 31.9z"/></svg>
