<svg version="1.1" id="Layer_1" xmlns="http://www.w3.org/2000/svg" x="0" y="0" viewBox="0 0 64 64" xml:space="preserve">
<style>.st0{fill:none;stroke:#000;stroke-miterlimit:10}</style><path d="M22.2 58c-5.4 0-13.3-1-20-5.8-2-1.4-2.8-4.1-1.8-6.4.9-2.3 3.4-3.6 5.9-3.1 0 0 1 .2 2.5.1-1-1.4-1.9-3-2.5-4.7-.2-.6-.3-1.1-.3-1.7-2.5-2.9-3.8-6.5-3.8-10.5 0-.9.2-1.8.7-2.5C2 20 1.7 15.5 4.6 10.7 5.5 9.3 7 8.3 8.7 8.1h.2c1.8-.1 3.4.6 4.5 1.8.7.7 6.1 6.4 13 8.3C28 11.2 34.4 6 42.1 6c3.4 0 6.7 1 9.3 2.9.7-.2 1.6-.5 2.4-1.1 1.6-1.1 3.7-1.3 5.4-.4 1.7.8 2.9 2.4 3.1 4.3V12.6c1.4 1.4 1.9 3.4 1.3 5.2-.5 1.7-2.1 3.8-5.4 6.8-.2 7.4-3.7 27.2-28.6 32.8-.2 0-3.2.6-7.4.6zM5.4 47.6c-.2 0-.3.1-.3.1v.1c-.1.1-.1.2 0 .3 5.6 4.1 12.4 4.9 17.1 4.9 3.7 0 6.3-.5 6.4-.5 22.6-5.1 24.8-23.6 24.9-29.2 0-.7.3-1.4.8-1.8 4.2-3.7 4.7-5 4.7-5.1.1-.2-.1-.4-.2-.4l-.1-.1c-1.1-.5-1.7-1.8-1.3-3 .1-.3.1-.5.1-.7 0-.1-.1-.2-.2-.3-.1 0-.1-.1-.2-.1s-.2 0-.4.1c-2.2 1.5-4.5 2-5.6 2.1-.7.1-1.3-.1-1.8-.5-1.9-1.6-4.5-2.4-7.1-2.4-6.1 0-11 4.5-11.2 10.4 0 .7-.3 1.4-.9 1.8-.5.5-1.2.7-1.9.6-9.5-1.3-17-8.9-18.5-10.4l-.1-.1c-.1-.1-.3-.1-.4-.1-.2 0-.3.2-.4.3-1.8 3-2 6.2-.7 9.4.4 1 .2 2.2-.7 2.9l-.2.2c0 3.2 1 5.8 3.2 7.8.7.7.9 1.6.7 2.5v.3c.8 2.5 2.4 4.5 4.6 5.8.8.5 1.3 1.4 1.2 2.4-.1 1-.8 1.8-1.7 2.1-4.6 1.5-9.5.8-9.7.7 0-.1-.1-.1-.1-.1zm53.1-31.9z"/><path class="st0" d="M-5.7.9zM32 32z"/></svg>
