<svg xmlns="http://www.w3.org/2000/svg" viewBox="0 0 64 64"><path d="M56.5 18.2h-3.6c.7-1.3 1.1-2.9 1.1-4.5 0-5.2-4.3-9.5-9.5-9.5h-35C4.3 4.2 0 8.5 0 13.7v38.6c0 4.1 3.4 7.5 7.5 7.5h49c4.1 0 7.5-3.4 7.5-7.5V25.7c0-4.1-3.4-7.5-7.5-7.5zM59 44.6H48.5c-.4 0-.7-.3-.7-.7v-9.8c0-.4.3-.7.7-.7H59v11.2zM9.5 9.2h35c2.5 0 4.5 2 4.5 4.5s-2 4.5-4.5 4.5h-35c-2.5 0-4.5-2-4.5-4.5s2-4.5 4.5-4.5zm47 45.6h-49c-1.4 0-2.5-1.1-2.5-2.5V22.1c1.3.7 2.9 1.1 4.5 1.1h47c1.4 0 2.5 1.1 2.5 2.5v2.7H48.5c-3.1 0-5.7 2.6-5.7 5.7v9.8c0 3.1 2.6 5.7 5.7 5.7H59v2.7c0 1.4-1.1 2.5-2.5 2.5z"/><circle cx="54" cy="39" r="2"/></svg>
